<svg width="342" height="50" viewBox="0 0 342 50" fill="none" xmlns="http://www.w3.org/2000/svg">
<path d="M162.68 45.55V50H160.46V0H162.68V45.55Z" fill="white"/>
<path d="M71.87 31.48L75.91 27.14V23.79H61.89V28.06H69.51L66.08 31.79V35.22H68.37C70.35 35.22 71.34 35.83 71.34 37.13C71.34 37.74 71.04 38.27 70.5 38.65C69.97 39.03 69.2 39.18 68.29 39.18C67.38 39.18 66.46 39.03 65.47 38.8C64.56 38.5 63.64 38.11 62.88 37.58L60.9 41.69C61.89 42.3 63.03 42.76 64.41 43.14C65.78 43.44 67.08 43.67 68.45 43.67C70.28 43.67 71.88 43.37 73.18 42.76C74.48 42.15 75.39 41.39 76 40.4C76.61 39.41 76.91 38.34 76.91 37.2C76.91 35.83 76.45 34.61 75.61 33.62C74.69 32.47 73.47 31.86 71.87 31.48ZM92.83 31.02H85.36V23.78H79.87V43.14H85.36V35.6H92.83V43.15H98.32V23.78H92.83V31.02ZM135.59 33.08L143.06 23.71H136.5L129.72 32.86H129.57V23.71H124.08V43.07H129.57V33.85L136.12 43.07H143.21L135.59 33.08ZM116.08 24.47C114.71 23.71 113.11 23.4 111.28 23.4C109.45 23.4 107.85 23.78 106.48 24.47C105.11 25.23 104.04 26.22 103.28 27.67C102.52 29.04 102.14 30.72 102.14 32.7V43.14H107.55V38.87H115.1V43.14H120.59V32.7C120.59 30.72 120.21 29.04 119.45 27.67C118.59 26.22 117.53 25.15 116.08 24.47ZM115.01 34.6H107.46V32.16C107.46 30.71 107.76 29.64 108.45 28.96C109.14 28.27 110.05 27.89 111.19 27.89C112.33 27.89 113.25 28.27 113.93 28.96C114.62 29.65 114.92 30.71 114.92 32.16V34.6H115.01ZM130.48 7.47H127.2V17.45H130.48V7.47ZM108.15 13.8H111.27V17.46H114.62V7.47H111.27V10.98H108.15V7.47H104.8V17.45H108.15V13.8ZM139.4 12.35V17.53H142.68V7.55H139.48L136.05 12.73V7.55H132.85V17.53H136.05L139.4 12.35ZM85.51 17.07C86.35 17.53 87.34 17.76 88.33 17.76C89.32 17.76 90.16 17.61 90.92 17.23C91.68 16.93 92.29 16.39 92.83 15.78L90.7 13.87C90.09 14.63 89.33 15.01 88.49 15.01C87.8 15.01 87.19 14.78 86.81 14.32C86.35 13.86 86.2 13.25 86.2 12.49C86.2 11.73 86.43 11.12 86.81 10.66C87.27 10.2 87.8 9.97 88.49 9.97C89.33 9.97 90.09 10.35 90.7 11.11L92.83 9.2C92.37 8.51 91.69 8.06 90.92 7.68C90.16 7.38 89.32 7.15 88.33 7.15C87.26 7.15 86.35 7.38 85.51 7.84C84.67 8.3 83.99 8.91 83.53 9.67C83.07 10.43 82.84 11.35 82.84 12.41C82.84 13.4 83.07 14.32 83.53 15.08C83.99 16.01 84.68 16.62 85.51 17.07ZM135.36 6.33C135.82 6.71 136.66 6.94 137.72 6.94C138.78 6.94 139.63 6.71 140.08 6.33C140.61 5.95 140.84 5.34 140.84 4.5H138.63C138.63 4.8 138.55 5.03 138.4 5.19C138.25 5.34 138.02 5.42 137.71 5.42C137.4 5.42 137.18 5.34 137.02 5.19C136.87 5.04 136.79 4.81 136.79 4.5H134.6C134.67 5.34 134.9 5.95 135.36 6.33ZM81.48 14.94H76.45V13.64H80.64V11.2H76.45V10.06H81.25V7.55H73.09V17.53H81.4V14.94H81.48ZM103.2 7.47H94.05V10.06H96.95V17.45H100.23V10.06H103.13V7.47H103.2ZM126.21 13.87C126.21 12.8 125.91 11.96 125.22 11.43C124.53 10.9 123.62 10.59 122.32 10.59H120.26V7.55H116.98V17.53H121.93C123.3 17.53 124.29 17.23 125.13 16.62C125.83 15.93 126.21 15.02 126.21 13.87ZM122.56 14.86C122.33 15.09 122.03 15.16 121.72 15.16H120.27V12.95H121.72C122.48 12.95 122.86 13.25 122.86 13.94C122.86 14.33 122.78 14.64 122.56 14.86ZM65.7 14.64C66.23 14.64 66.84 14.56 67.53 14.34V17.54H70.8V7.55H67.52V11.74C67.14 11.89 66.68 11.97 66.15 11.97C65.62 11.97 65.24 11.82 64.93 11.51C64.63 11.21 64.55 10.75 64.55 10.14V7.47H61.2V10.52C61.2 11.82 61.58 12.88 62.34 13.57C63.11 14.25 64.25 14.64 65.7 14.64Z" fill="white"/>
<path d="M37.42 14.79L21.26 30.95L12.34 22.03L7.92 26.45L21.26 39.79L41.84 19.21L37.42 14.79ZM6.25 9.38C6.25 7.63 7.62 6.26 9.37 6.26H16.84V0H9.37C4.19 0 0 4.19 0 9.38V16.85H6.25V9.38ZM43.75 9.38V16.85H50V9.38C50 4.19 45.81 0 40.62 0H33.15V6.25H40.62C42.38 6.25 43.75 7.62 43.75 9.38ZM43.75 33.16V40.63C43.75 42.38 42.38 43.75 40.63 43.75H33.16V50H40.63C45.81 50 50 45.81 50 40.63V33.16H43.75ZM6.25 40.63V33.16H0V40.63C0 45.81 4.19 50 9.37 50H16.84V43.75H9.37C7.62 43.75 6.25 42.38 6.25 40.63Z" fill="white"/>
<path d="M219.34 26.67V40H223.78V26.67H230.45V22.23H223.78H219.34H212.67V26.67H219.34ZM230.46 0.01V4.45V8.9V13.34H217.13V17.78H212.69V22.21H208.25V17.77H212.69V0.01H217.13H226.02H230.46ZM226.01 4.46H217.12V8.9H226.01V4.46ZM208.23 0H203.79V13.33H194.9V0H190.46V13.33V17.77H194.9H203.79H208.23V13.33V0ZM190.46 22.22V40H194.9V26.67H203.79V40H208.23V26.67V22.23H190.46V22.22ZM184.9 0H180.46V45.55V50H184.9H230.45V45.56H184.9V0Z" fill="white"/>
<path d="M249.17 6.12001H250.26V7.30001H242.96V0.0200098H244.3V6.11001L247.83 6.10001V0.0200098H249.17V6.12001ZM252.89 4.19001H256.36V3.05001L252.89 3.04001V1.20001H256.83V0.0200098H251.55V7.29001H256.9V6.12001H252.9V4.19001H252.89ZM259.66 4.20001H263.19V7.29001H264.53V0.0200098H263.19V3.01001H259.66V0.0200098H258.32V7.29001H259.66V4.20001ZM267.99 7.30001H269.33V1.21001H271.74V0.0300098L265.56 0.0200098V1.21001H267.99V7.30001ZM293.04 7.28001H291.7V0.0100098H297.61V7.28001H296.27V4.79001H293.04V7.28001ZM293.04 3.60001H296.27V1.20001H293.04V3.60001ZM310.41 7.28001H306.63V0.0100098H310.32C311.68 0.0100098 312.59 0.790009 312.59 1.98001C312.59 2.56001 312.27 3.16001 311.8 3.45001V3.54001C312.49 3.79001 312.95 4.47001 312.95 5.23001C312.95 6.46001 311.93 7.28001 310.41 7.28001ZM307.97 3.04001H310.23C310.83 3.04001 311.22 2.71001 311.22 2.22001V2.03001C311.22 1.53001 310.83 1.19001 310.23 1.19001H307.97V3.04001ZM311.57 5.03001C311.57 4.49001 311.09 4.13001 310.37 4.13001H307.97V6.09001H310.37C311.09 6.09001 311.57 5.74001 311.57 5.21001V5.03001ZM319.44 1.89001H319.53L319.52 7.29001H320.86L320.87 0.0200098H318.98L315.81 5.10001H315.71V0.0100098H314.37V7.28001H316.11L319.44 1.89001ZM328.09 0.0200098L321.91 0.0100098V1.20001H324.34V7.29001H325.68V1.20001H328.09V0.0200098ZM330.67 5.09001H330.57V0.0100098H329.23V7.28001H330.97L334.3 1.88001H334.39L334.38 7.28001H335.72L335.73 0.0100098H333.84L330.67 5.09001ZM342.95 0.0100098V7.28001H341.61V4.55001L339.96 4.54001L338.31 7.28001H336.74L338.61 4.29001C337.8 3.94001 337.3 3.21001 337.3 2.27001C337.3 0.92001 338.33 0.0100098 339.88 0.0100098H342.95ZM341.61 1.19001H339.88C339.16 1.19001 338.67 1.59001 338.67 2.17001V2.37001C338.67 2.97001 339.16 3.37001 339.88 3.37001H341.61V1.19001ZM305.23 5.23001C305.23 4.47001 304.77 3.79001 304.08 3.54001V3.45001C304.55 3.16001 304.87 2.56001 304.87 1.98001C304.87 0.790009 303.96 0.0100098 302.6 0.0100098H298.98V1.19001H300.26H300.51H302.52C303.12 1.19001 303.51 1.53001 303.51 2.03001V2.22001C303.51 2.71001 303.12 3.04001 302.52 3.04001H300.5H300.25V4.13001H300.96H302.64C303.36 4.13001 303.84 4.48001 303.84 5.03001V5.22001C303.84 5.74001 303.36 6.10001 302.64 6.10001H300.96H300.25H298.91V7.29001H302.69C304.22 7.28001 305.23 6.46001 305.23 5.23001ZM285.36 7.28001H284.02V0.0100098H289.93V4.79001H285.36V7.28001ZM285.36 3.60001H288.59V1.20001H285.36V3.60001ZM274.13 7.29001H272.79V0.0200098H278.7V4.80001H274.13V7.29001ZM274.13 3.62001H277.36V1.21001H274.13V3.62001Z" fill="white"/>
<path d="M243.44 16.38H242.96V23.65H244.3V17.56H247.83V23.65H249.17V16.38L243.44 16.37V16.38ZM279.66 23.64V16.37H273.45V23.64H274.79V17.55H278.32V23.64H279.66ZM286.93 22.46H282.93V20.53H286.4V19.4L282.93 19.39V17.55H286.87V16.37H281.59V23.64H286.94V22.46H286.93ZM288.92 16.37V23.64H290.26V20.14L292.9 23.64H294.56L291.71 19.87L294.23 16.37H292.79L290.26 19.9V16.37H288.92ZM299.03 23.65V17.56H301.44V16.38L295.26 16.37V17.56H297.69V23.65H299.03ZM315.26 23.64H311.48V16.37H315.17C316.53 16.37 317.44 17.15 317.44 18.34C317.44 18.92 317.12 19.52 316.65 19.81V19.9C317.34 20.15 317.8 20.83 317.8 21.59C317.8 22.82 316.79 23.64 315.26 23.64ZM312.83 19.4H315.09C315.69 19.4 316.08 19.07 316.08 18.58V18.39C316.08 17.89 315.69 17.55 315.09 17.55H312.83V19.4ZM315.22 22.45C315.94 22.45 316.42 22.1 316.42 21.57V21.38C316.42 20.84 315.94 20.48 315.22 20.48H312.82V22.44H315.22V22.45ZM332.87 21.36C332.87 22.72 331.84 23.64 330.29 23.64H327.2V16.37H328.54V19.05L330.29 19.06C331.84 19.06 332.87 19.97 332.87 21.36ZM331.54 21.25C331.54 20.64 331.04 20.23 330.29 20.23H328.54V22.46H330.29C331.04 22.46 331.54 22.06 331.54 21.46V21.25ZM333.91 23.64H335.25V16.37H333.91V23.64ZM267.86 17.55H271.8V16.37H266.52V23.64H271.87V22.46H267.87V17.55H267.86ZM258.83 16.37H264.74V21.15H260.17V23.64H258.83V16.37ZM260.17 19.96H263.4V17.55H260.17V19.96ZM252.72 20.54H256.19V19.4L252.72 19.39V17.55H256.66V16.37H251.38V23.64H256.73V22.46H252.73V20.54H252.72ZM307.9 18.25H307.99L307.98 23.65H309.32L309.33 16.38H307.44L304.27 21.46H304.17V16.38H302.83V23.65H304.57L307.9 18.25ZM324.11 19.36H320.58V16.37H319.24V23.64H320.58V20.55H324.11V23.64H325.45V16.37H324.11V19.36ZM342.65 16.38H341.12L339.6 18.89L338 16.38H336.33L338.62 19.92L336.28 23.65H337.8L339.5 20.88L341.26 23.65H342.95L340.46 19.87L342.65 16.38Z" fill="white"/>
<path d="M279.7 36.27C279.7 38.5 278.28 40 276.15 40C274.01 40 272.6 38.5 272.6 36.27C272.6 34.03 274.01 32.54 276.15 32.54C278.28 32.54 279.7 34.02 279.7 36.27ZM278.37 36.16C278.37 34.7 277.48 33.72 276.15 33.72C274.81 33.72 273.93 34.7 273.93 36.16V36.36C273.93 37.82 274.81 38.81 276.15 38.81C277.48 38.81 278.37 37.82 278.37 36.36V36.16ZM281.49 38.02C281.47 38.5 281.1 38.83 280.59 38.83C280.47 38.83 280.3 38.8 280.16 38.77L279.99 39.86C280.21 39.95 280.58 40 280.9 40C281.97 40 282.72 39.29 282.77 38.22L283.02 33.89H285.83V39.9H287.12V32.73H281.79L281.49 38.02ZM295.63 36.27C295.63 38.5 294.21 40 292.08 40C289.94 40 288.53 38.5 288.53 36.27C288.53 34.03 289.94 32.54 292.08 32.54C294.21 32.54 295.63 34.02 295.63 36.27ZM294.3 36.16C294.3 34.7 293.41 33.72 292.08 33.72C290.74 33.72 289.86 34.7 289.86 36.16V36.36C289.86 37.82 290.74 38.81 292.08 38.81C293.41 38.81 294.3 37.82 294.3 36.36V36.16ZM297.01 40H298.35V33.9H301.91V32.72H297V40H297.01ZM313.09 31.72H316.9V30.71H313.09V31.72ZM242.96 33.9H245.39V40H246.73V33.9H249.14V32.72L242.96 32.71V33.9ZM251.85 36.89H255.32V35.75L251.85 35.74V33.9H255.79V32.72H250.51V40H255.86V38.82H251.86V36.89H251.85ZM263.61 32.73H262.08L260.56 35.24L258.96 32.73H257.29L259.58 36.27L257.24 40H258.76L260.46 37.23L262.22 40H263.91L261.42 36.22L263.61 32.73ZM269.94 35.72H266.41V32.73H265.07V40H266.41V36.9H269.94V40H271.28V32.73H269.94V35.72ZM304.73 37.81H304.63V32.73H303.29V40H305.03L308.36 34.6H308.45L308.44 40H309.78L309.79 32.73H307.9L304.73 37.81ZM313.19 37.81H313.09V32.73H311.75V40H313.49L316.82 34.6H316.91L316.9 40H318.24L318.25 32.73H316.36L313.19 37.81Z" fill="white"/>
</svg>
